<?xml version="1.0" encoding="UTF-8"?>
<!DOCTYPE svg PUBLIC "-//W3C//DTD SVG 1.1//EN" "http://www.w3.org/Graphics/SVG/1.1/DTD/svg11.dtd">
<svg xmlns="http://www.w3.org/2000/svg" version="1.1" width="1080px" height="1080px" style="shape-rendering:geometricPrecision; text-rendering:geometricPrecision; image-rendering:optimizeQuality; fill-rule:evenodd; clip-rule:evenodd" xmlns:xlink="http://www.w3.org/1999/xlink">
<g><path style="opacity:1" fill="#fefefe" d="M -0.5,-0.5 C 359.5,-0.5 719.5,-0.5 1079.5,-0.5C 1079.5,359.5 1079.5,719.5 1079.5,1079.5C 719.5,1079.5 359.5,1079.5 -0.5,1079.5C -0.5,719.5 -0.5,359.5 -0.5,-0.5 Z"/></g>
<g><path style="opacity:1" fill="#585858" d="M 591.5,253.5 C 602.674,252.176 614.007,252.176 625.5,253.5C 625.376,254.107 625.043,254.44 624.5,254.5C 613.679,253.505 602.679,253.172 591.5,253.5 Z"/></g>
<g><path style="opacity:1" fill="#050505" d="M 591.5,253.5 C 602.679,253.172 613.679,253.505 624.5,254.5C 623.686,260.534 622.686,266.534 621.5,272.5C 485.802,271.887 366.469,315.053 263.5,402C 230.62,430.95 205.453,465.45 188,505.5C 184.299,513.897 181.466,522.564 179.5,531.5C 178.833,531.5 178.5,531.167 178.5,530.5C 187.647,485.873 207.147,446.54 237,412.5C 279.561,365.627 329.728,329.127 387.5,303C 452.12,272.727 520.12,256.227 591.5,253.5 Z"/></g>
<g><path style="opacity:1" fill="#050505" d="M 907.5,575.5 C 907.167,575.5 906.833,575.5 906.5,575.5C 911.559,516.512 894.725,464.846 856,420.5C 808.784,369.975 750.617,340.808 681.5,333C 629.757,328.149 579.09,333.482 529.5,349C 500.913,357.917 473.247,369.084 446.5,382.5C 446.167,381.833 445.833,381.167 445.5,380.5C 446.299,374.591 447.299,368.758 448.5,363C 510.131,331.073 575.631,313.573 645,310.5C 718.216,309.567 782.716,332.4 838.5,379C 896.991,431.857 919.991,497.357 907.5,575.5 Z"/></g>
<g><path style="opacity:1" fill="#060606" d="M 866.5,527.5 C 867.065,532.322 866.399,536.822 864.5,541C 866.25,542.754 866.917,544.921 866.5,547.5C 866.665,551.182 866.499,554.848 866,558.5C 865.5,559.667 864.667,560.5 863.5,561C 864.308,561.308 864.975,561.808 865.5,562.5C 864.652,564.409 864.318,566.409 864.5,568.5C 863.234,569.09 861.901,569.59 860.5,570C 861.942,570.377 862.942,571.21 863.5,572.5C 860.546,587.577 853.546,600.41 842.5,611C 825.549,622.716 808.216,623.382 790.5,613C 786.915,609.922 783.915,606.422 781.5,602.5C 782.72,600.716 782.72,599.05 781.5,597.5C 782.974,595.039 782.807,592.706 781,590.5C 781.792,592.846 781.625,595.179 780.5,597.5C 780.672,598.492 780.338,599.158 779.5,599.5C 775.304,591.723 772.804,583.39 772,574.5C 770.516,553.927 773.183,533.927 780,514.5C 785.316,499.519 795.149,488.686 809.5,482C 837.144,475.402 855.31,485.569 864,512.5C 865.636,517.375 866.469,522.375 866.5,527.5 Z"/></g>
<g><path style="opacity:1" fill="#050505" d="M 710.5,481.5 C 746.958,480.291 764.958,497.958 764.5,534.5C 765.5,565.652 754.167,591.152 730.5,611C 723.741,615.253 716.407,617.92 708.5,619C 695.526,620.404 682.526,620.737 669.5,620C 668.351,611.579 668.184,603.079 669,594.5C 670.834,560.162 672.834,525.828 675,491.5C 676.171,490.107 677.671,489.273 679.5,489C 689.856,485.993 700.189,483.493 710.5,481.5 Z"/></g>
<g><path style="opacity:1" fill="#040404" d="M 310.5,555.5 C 309.215,550.882 309.215,546.216 310.5,541.5C 310.471,539.176 309.471,538.01 307.5,538C 308.479,544.744 308.812,551.578 308.5,558.5C 304.499,564.33 299.166,568.496 292.5,571C 280.679,576.205 268.346,579.372 255.5,580.5C 255.206,593.172 254.706,605.839 254,618.5C 253.5,619 253,619.5 252.5,620C 242.833,620.667 233.167,620.667 223.5,620C 221.941,618.004 221.274,615.671 221.5,613C 221.39,608.439 222.39,604.272 224.5,600.5C 224.05,598.016 223.717,595.516 223.5,593C 224.893,591.699 225.393,590.199 225,588.5C 224.444,590.595 223.944,590.762 223.5,589C 223.905,588.055 224.572,587.388 225.5,587C 223.75,585.246 223.083,583.079 223.5,580.5C 224.598,551.479 226.098,522.479 228,493.5C 245.352,487.996 263.185,484.329 281.5,482.5C 297.101,483.209 308.268,490.543 315,504.5C 322.103,522.431 320.603,539.431 310.5,555.5 Z"/></g>
<g><path style="opacity:1" fill="#050505" d="M 386.5,482.5 C 401.444,479.082 411.61,484.415 417,498.5C 419.32,506.085 421.32,513.752 423,521.5C 428.241,550.524 433.575,579.524 439,608.5C 439.825,612.211 439.659,615.878 438.5,619.5C 426.88,620.645 415.213,620.812 403.5,620C 401.888,610.928 400.555,601.761 399.5,592.5C 389.785,594.243 380.118,596.243 370.5,598.5C 368.322,605.041 366.322,611.707 364.5,618.5C 353.181,619.666 341.848,619.832 330.5,619C 329.02,617.701 328.354,616.034 328.5,614C 339.16,570.352 353.994,528.185 373,487.5C 373.903,486.299 375.069,485.465 376.5,485C 380.038,484.465 383.372,483.632 386.5,482.5 Z"/></g>
<g><path style="opacity:1" fill="#040404" d="M 506.5,535.5 C 507.376,535.631 508.043,535.298 508.5,534.5C 508.154,533.304 507.654,533.304 507,534.5C 506.51,533.207 506.343,531.873 506.5,530.5C 507.463,526.204 507.629,521.871 507,517.5C 505.517,513.335 502.684,511.835 498.5,513C 489.248,520.995 483.748,531.162 482,543.5C 480.549,555.802 480.215,568.135 481,580.5C 482.017,589.268 486.851,592.435 495.5,590C 499.026,587.974 501.693,585.141 503.5,581.5C 500.863,580.379 498.196,580.379 495.5,581.5C 493.971,581.471 492.804,580.804 492,579.5C 492.7,569.861 493.7,560.195 495,550.5C 495.833,549.667 496.667,548.833 497.5,548C 507.415,545.922 517.415,545.255 527.5,546C 533.866,547.363 538.032,551.196 540,557.5C 540.965,572.342 537.965,586.342 531,599.5C 520.679,613.661 506.679,620.661 489,620.5C 465.133,619.636 451.8,607.302 449,583.5C 448.131,569.13 448.464,554.797 450,540.5C 453.432,519.447 463.599,502.614 480.5,490C 495.811,480.739 511.478,480.073 527.5,488C 534.053,492.553 538.219,498.72 540,506.5C 540.988,516.276 540.488,525.942 538.5,535.5C 528.173,536.565 517.84,537.065 507.5,537C 506.944,536.617 506.611,536.117 506.5,535.5 Z"/></g>
<g><path style="opacity:1" fill="#050505" d="M 608.5,482.5 C 618.282,480.645 626.448,483.312 633,490.5C 635.194,493.554 636.861,496.888 638,500.5C 646.378,538.64 653.878,576.973 660.5,615.5C 660.61,617.374 659.944,618.874 658.5,620C 646.833,620.667 635.167,620.667 623.5,620C 622.874,619.25 622.374,618.416 622,617.5C 621.574,609.156 621.074,600.823 620.5,592.5C 610.424,594.115 600.424,596.115 590.5,598.5C 588.423,605.307 586.423,612.141 584.5,619C 573.167,619.667 561.833,619.667 550.5,619C 549.056,617.874 548.39,616.374 548.5,614.5C 559.45,570.818 574.283,528.485 593,487.5C 593.903,486.299 595.069,485.465 596.5,485C 600.665,484.295 604.665,483.461 608.5,482.5 Z"/></g>
<g><path style="opacity:1" fill="#b0b0b0" d="M 835.5,488.5 C 834.325,488.281 833.325,488.614 832.5,489.5C 832.624,490.107 832.957,490.44 833.5,490.5C 832.503,491.713 831.503,491.546 830.5,490C 831.337,488.989 831.67,487.822 831.5,486.5C 833.483,486.157 834.817,486.824 835.5,488.5 Z"/></g>
<g><path style="opacity:1" fill="#585858" d="M 833.5,490.5 C 832.957,490.44 832.624,490.107 832.5,489.5C 833.325,488.614 834.325,488.281 835.5,488.5C 836.423,487.697 837.423,487.53 838.5,488C 837.347,489.883 835.681,490.716 833.5,490.5 Z"/></g>
<g><path style="opacity:1" fill="#bdbdbd" d="M 702.5,491.5 C 704.337,491.639 704.67,492.306 703.5,493.5C 702.702,493.043 702.369,492.376 702.5,491.5 Z"/></g>
<g><path style="opacity:1" fill="#b7b7b7" d="M 725.5,491.5 C 726.675,491.281 727.675,491.614 728.5,492.5C 726.948,493.798 725.948,493.465 725.5,491.5 Z"/></g>
<g><path style="opacity:1" fill="#959595" d="M 514.5,498.5 C 516.337,498.639 516.67,499.306 515.5,500.5C 514.702,500.043 514.369,499.376 514.5,498.5 Z"/></g>
<g><path style="opacity:1" fill="#868686" d="M 714.5,498.5 C 716.337,498.639 716.67,499.306 715.5,500.5C 714.702,500.043 714.369,499.376 714.5,498.5 Z"/></g>
<g><path style="opacity:1" fill="#919191" d="M 523.5,500.5 C 525.337,500.639 525.67,501.306 524.5,502.5C 523.702,502.043 523.369,501.376 523.5,500.5 Z"/></g>
<g><path style="opacity:1" fill="#cccccc" d="M 624.5,501.5 C 625.675,501.281 626.675,501.614 627.5,502.5C 625.948,503.798 624.948,503.465 624.5,501.5 Z"/></g>
<g><path style="opacity:1" fill="#cacaca" d="M 404.5,501.5 C 405.675,501.281 406.675,501.614 407.5,502.5C 405.948,503.798 404.948,503.465 404.5,501.5 Z"/></g>
<g><path style="opacity:1" fill="#919191" d="M 404.5,506.5 C 406.337,506.639 406.67,507.306 405.5,508.5C 404.702,508.043 404.369,507.376 404.5,506.5 Z"/></g>
<g><path style="opacity:1" fill="#8d8d8d" d="M 624.5,506.5 C 626.337,506.639 626.67,507.306 625.5,508.5C 624.702,508.043 624.369,507.376 624.5,506.5 Z"/></g>
<g><path style="opacity:1" fill="#fafafa" d="M 822.5,506.5 C 824.655,506.372 826.655,506.872 828.5,508C 829.916,510.835 831.583,513.502 833.5,516C 833.043,516.414 832.709,516.914 832.5,517.5C 832.82,527.544 833.82,537.378 835.5,547C 832.712,549.321 832.045,552.154 833.5,555.5C 831.35,563.428 829.183,571.428 827,579.5C 823.739,588.846 818.072,590.846 810,585.5C 808.601,582.637 807.601,579.637 807,576.5C 805.156,557.079 807.156,538.079 813,519.5C 814.735,513.994 817.901,509.661 822.5,506.5 Z"/></g>
<g><path style="opacity:1" fill="#cfcfcf" d="M 520.5,508.5 C 522.983,508.73 523.483,509.397 522,510.5C 520.97,510.164 520.47,509.497 520.5,508.5 Z"/></g>
<g><path style="opacity:1" fill="#dddddd" d="M 744.5,511.5 C 749.276,511.671 749.609,512.671 745.5,514.5C 743.197,514.124 742.863,513.124 744.5,511.5 Z"/></g>
<g><path style="opacity:1" fill="#f8f8f8" d="M 260.5,548.5 C 259.5,548.5 258.5,548.5 257.5,548.5C 257.5,547.167 257.5,545.833 257.5,544.5C 257.46,535.472 257.96,526.472 259,517.5C 264.697,515.726 270.531,514.393 276.5,513.5C 283.219,515.577 286.553,520.244 286.5,527.5C 286.226,536.283 281.893,542.116 273.5,545C 269.284,546.684 264.951,547.851 260.5,548.5 Z"/></g>
<g><path style="opacity:1" fill="#a6a6a6" d="M 515.5,514.5 C 516.568,513.566 517.901,513.232 519.5,513.5C 519.5,515.5 519.5,517.5 519.5,519.5C 516.724,519.911 516.057,519.078 517.5,517C 517.361,515.699 516.695,514.866 515.5,514.5 Z"/></g>
<g><path style="opacity:1" fill="#949494" d="M 627.5,513.5 C 629.337,513.639 629.67,514.306 628.5,515.5C 627.702,515.043 627.369,514.376 627.5,513.5 Z"/></g>
<g><path style="opacity:1" fill="#fbfbfb" d="M 731.5,530.5 C 731.187,534.042 731.521,537.375 732.5,540.5C 735.674,540.952 736.007,541.952 733.5,543.5C 732.914,543.291 732.414,542.957 732,542.5C 730.48,553.915 726.814,564.582 721,574.5C 716.203,580.463 710.036,584.13 702.5,585.5C 701.988,581.566 700.655,578.066 698.5,575C 700.723,572.329 701.89,569.162 702,565.5C 702.593,554.315 703.426,543.149 704.5,532C 704.667,528.63 704.001,525.463 702.5,522.5C 704.978,521.278 705.978,519.278 705.5,516.5C 709.782,515.577 714.116,514.911 718.5,514.5C 723.429,514.047 726.929,516.047 729,520.5C 730.352,523.72 731.186,527.053 731.5,530.5 Z"/></g>
<g><path style="opacity:1" fill="#d8d8d8" d="M 482.5,518.5 C 484.085,519.002 484.585,520.002 484,521.5C 482.961,520.756 482.461,519.756 482.5,518.5 Z"/></g>
<g><path style="opacity:1" fill="#7f7f7f" d="M 583.5,521.5 C 585.337,521.639 585.67,522.306 584.5,523.5C 583.702,523.043 583.369,522.376 583.5,521.5 Z"/></g>
<g><path style="opacity:1" fill="#9f9f9f" d="M 678.5,518.5 C 679.152,519.449 679.486,520.615 679.5,522C 679.171,526.679 678.338,531.179 677,535.5C 677.083,529.825 677.583,524.158 678.5,518.5 Z"/></g>
<g><path style="opacity:1" fill="#c8c8c8" d="M 739.5,522.5 C 740.995,522.415 741.995,523.081 742.5,524.5C 740.604,525.639 739.604,524.973 739.5,522.5 Z"/></g>
<g><path style="opacity:1" fill="#bebebe" d="M 836.5,525.5 C 838.355,525.272 839.188,525.939 839,527.5C 836.192,528.86 835.359,528.193 836.5,525.5 Z"/></g>
<g><path style="opacity:1" fill="#949494" d="M 293.5,527.5 C 295.337,527.639 295.67,528.306 294.5,529.5C 293.702,529.043 293.369,528.376 293.5,527.5 Z"/></g>
<g><path style="opacity:1" fill="#d6d6d6" d="M 386.5,527.5 C 388.048,527.821 388.715,528.821 388.5,530.5C 385.752,530.598 385.086,529.598 386.5,527.5 Z"/></g>
<g><path style="opacity:1" fill="#dcdcdc" d="M 606.5,527.5 C 608.048,527.821 608.715,528.821 608.5,530.5C 605.752,530.598 605.086,529.598 606.5,527.5 Z"/></g>
<g><path style="opacity:1" fill="#ececec" d="M 389.5,532.5 C 391.345,536.167 392.512,540.167 393,544.5C 393.916,550.833 394.75,557.166 395.5,563.5C 390.5,563.5 385.5,563.5 380.5,563.5C 383.037,553.016 386.037,542.682 389.5,532.5 Z"/></g>
<g><path style="opacity:1" fill="#757575" d="M 506.5,530.5 C 506.343,531.873 506.51,533.207 507,534.5C 507.654,533.304 508.154,533.304 508.5,534.5C 508.043,535.298 507.376,535.631 506.5,535.5C 505.167,533.833 505.167,532.167 506.5,530.5 Z"/></g>
<g><path style="opacity:1" fill="#ececec" d="M 609.5,532.5 C 610.117,532.611 610.617,532.944 611,533.5C 613.26,543.394 614.76,553.394 615.5,563.5C 610.5,563.5 605.5,563.5 600.5,563.5C 603.297,553.108 606.297,542.775 609.5,532.5 Z"/></g>
<g><path style="opacity:1" fill="#8b8b8b" d="M 289.5,532.5 C 291.368,533.786 291.534,535.119 290,536.5C 289.51,535.207 289.343,533.873 289.5,532.5 Z"/></g>
<g><path style="opacity:1" fill="#595959" d="M 292.5,534.5 C 293.239,534.369 293.906,534.536 294.5,535C 292.316,540.891 291.65,540.724 292.5,534.5 Z"/></g>
<g><path style="opacity:1" fill="#9f9f9f" d="M 731.5,530.5 C 732.66,531.611 733.993,532.611 735.5,533.5C 734.675,534.386 733.675,534.719 732.5,534.5C 732.5,536.5 732.5,538.5 732.5,540.5C 731.521,537.375 731.187,534.042 731.5,530.5 Z"/></g>
<g><path style="opacity:1" fill="#e0e0e0" d="M 735.5,537.5 C 737.134,538.207 738.468,539.373 739.5,541C 736.51,541.847 735.176,540.68 735.5,537.5 Z"/></g>
<g><path style="opacity:1" fill="#757575" d="M 866.5,527.5 C 867.833,534.167 867.833,540.833 866.5,547.5C 866.917,544.921 866.25,542.754 864.5,541C 866.399,536.822 867.065,532.322 866.5,527.5 Z"/></g>
<g><path style="opacity:1" fill="#4c4c4c" d="M 310.5,555.5 C 310.573,557.027 309.906,558.027 308.5,558.5C 308.812,551.578 308.479,544.744 307.5,538C 309.471,538.01 310.471,539.176 310.5,541.5C 309.215,546.216 309.215,550.882 310.5,555.5 Z"/></g>
<g><path style="opacity:1" fill="#5a5a5a" d="M 257.5,544.5 C 257.5,545.833 257.5,547.167 257.5,548.5C 258.5,548.5 259.5,548.5 260.5,548.5C 259.432,549.434 258.099,549.768 256.5,549.5C 256.216,547.585 256.549,545.919 257.5,544.5 Z"/></g>
<g><path style="opacity:1" fill="#9d9d9d" d="M 739.5,546.5 C 741.337,546.639 741.67,547.306 740.5,548.5C 739.702,548.043 739.369,547.376 739.5,546.5 Z"/></g>
<g><path style="opacity:1" fill="#d0d0d0" d="M 837.5,546.5 C 838.922,546.75 839.922,547.583 840.5,549C 838.511,549.519 837.511,548.686 837.5,546.5 Z"/></g>
<g><path style="opacity:1" fill="#b2b2b2" d="M 852.5,548.5 C 854.465,548.948 854.798,549.948 853.5,551.5C 852.614,550.675 852.281,549.675 852.5,548.5 Z"/></g>
<g><path style="opacity:1" fill="#797979" d="M 526.5,550.5 C 529.907,550.125 530.407,551.125 528,553.5C 526.961,552.756 526.461,551.756 526.5,550.5 Z"/></g>
<g><path style="opacity:1" fill="#dbdbdb" d="M 834.5,550.5 C 840.996,552.029 840.996,553.029 834.5,553.5C 834.5,552.5 834.5,551.5 834.5,550.5 Z"/></g>
<g><path style="opacity:1" fill="#747474" d="M 857.5,550.5 C 858.473,551.791 859.473,551.791 860.5,550.5C 860.833,551 861.167,551.5 861.5,552C 860.456,553.174 859.456,554.341 858.5,555.5C 858.508,553.95 858.175,552.283 857.5,550.5 Z"/></g>
<g><path style="opacity:1" fill="#bcbcbc" d="M 403.5,552.5 C 404.743,551.263 405.743,551.596 406.5,553.5C 406.167,553.833 405.833,554.167 405.5,554.5C 404.818,553.757 404.151,553.091 403.5,552.5 Z"/></g>
<g><path style="opacity:1" fill="#dddddd" d="M 603.5,536.5 C 604.043,536.56 604.376,536.893 604.5,537.5C 600.559,547.654 596.225,557.654 591.5,567.5C 591.167,567 590.833,566.5 590.5,566C 591.717,563.632 592.551,561.132 593,558.5C 595.845,550.766 599.345,543.433 603.5,536.5 Z"/></g>
<g><path style="opacity:1" fill="#cbcbcb" d="M 623.5,552.5 C 624.743,551.263 625.743,551.596 626.5,553.5C 626.167,553.833 625.833,554.167 625.5,554.5C 624.818,553.757 624.151,553.091 623.5,552.5 Z"/></g>
<g><path style="opacity:1" fill="#bababa" d="M 743.5,551.5 C 746.137,553.154 745.803,553.654 742.5,553C 743.056,552.617 743.389,552.117 743.5,551.5 Z"/></g>
<g><path style="opacity:1" fill="#d3d3d3" d="M 857.5,550.5 C 858.175,552.283 858.508,553.95 858.5,555.5C 858.672,557.492 858.005,559.158 856.5,560.5C 857.894,561.687 857.727,562.354 856,562.5C 854.831,561.991 853.998,561.158 853.5,560C 854.672,559.581 855.672,558.915 856.5,558C 855.551,557.383 854.718,557.549 854,558.5C 853.833,557.833 853.667,557.167 853.5,556.5C 855.282,554.733 856.615,552.733 857.5,550.5 Z"/></g>
<g><path style="opacity:1" fill="#7f7f7f" d="M 631.5,554.5 C 632.386,553.224 633.386,553.224 634.5,554.5C 633.575,555.562 632.575,555.562 631.5,554.5 Z"/></g>
<g><path style="opacity:1" fill="#8e8e8e" d="M 406.5,555.5 C 408.337,555.639 408.67,556.306 407.5,557.5C 406.702,557.043 406.369,556.376 406.5,555.5 Z"/></g>
<g><path style="opacity:1" fill="#9d9d9d" d="M 836.5,554.5 C 837.675,554.281 838.675,554.614 839.5,555.5C 837.948,556.798 836.948,556.465 836.5,554.5 Z"/></g>
<g><path style="opacity:1" fill="#e1e1e1" d="M 382.5,536.5 C 383.376,536.369 384.043,536.702 384.5,537.5C 380.175,547.464 375.842,557.464 371.5,567.5C 370.777,564.106 371.277,560.772 373,557.5C 376.273,550.501 379.439,543.501 382.5,536.5 Z"/></g>
<g><path style="opacity:1" fill="#e6e6e6" d="M 412.5,556.5 C 415.999,556.259 416.332,557.092 413.5,559C 417.196,561.414 416.696,561.914 412,560.5C 411.421,559.072 411.588,557.738 412.5,556.5 Z"/></g>
<g><path style="opacity:1" fill="#848484" d="M 626.5,555.5 C 629.012,556.216 629.012,557.216 626.5,558.5C 625.913,557.767 625.913,556.767 626.5,555.5 Z"/></g>
<g><path style="opacity:1" fill="#e0e0e0" d="M 632.5,556.5 C 635.205,556.38 635.872,557.38 634.5,559.5C 635.025,560.192 635.692,560.692 636.5,561C 632.458,561.718 631.125,560.218 632.5,556.5 Z"/></g>
<g><path style="opacity:1" fill="#c9c9c9" d="M 749.5,555.5 C 751.337,555.639 751.67,556.306 750.5,557.5C 749.702,557.043 749.369,556.376 749.5,555.5 Z"/></g>
<g><path style="opacity:1" fill="#a8a8a8" d="M 281.5,556.5 C 282.675,556.281 283.675,556.614 284.5,557.5C 282.948,558.798 281.948,558.465 281.5,556.5 Z"/></g>
<g><path style="opacity:1" fill="#dbdbdb" d="M 745.5,555.5 C 746.693,555.97 747.36,556.97 747.5,558.5C 747.167,559.5 746.833,560.5 746.5,561.5C 745.534,559.604 745.201,557.604 745.5,555.5 Z"/></g>
<g><path style="opacity:1" fill="#b7b7b7" d="M 860.5,556.5 C 862.337,556.639 862.67,557.306 861.5,558.5C 860.702,558.043 860.369,557.376 860.5,556.5 Z"/></g>
<g><path style="opacity:1" fill="#040404" d="M 173.5,558.5 C 174.167,563.833 174.833,569.167 175.5,574.5C 177.996,625.654 198.329,668.154 236.5,702C 261.357,723.277 289.024,740.277 319.5,753C 365.617,771.78 413.284,785.113 462.5,793C 526.682,804.452 591.016,805.452 655.5,796C 731.065,783.64 795.232,750.14 848,695.5C 871.322,669.54 888.489,639.873 899.5,606.5C 900.167,606.5 900.5,606.833 900.5,607.5C 887.537,660.944 860.204,705.444 818.5,741C 775.204,776.801 725.87,800.801 670.5,813C 602.315,826.28 533.981,826.947 465.5,815C 422.272,807.812 379.939,797.145 338.5,783C 301.642,769.745 267.975,751.079 237.5,727C 185.739,682.57 164.406,626.403 173.5,558.5 Z"/></g>
<g><path style="opacity:1" fill="#929292" d="M 235.5,557.5 C 236.497,556.287 237.497,556.454 238.5,558C 237.296,560.277 235.63,560.777 233.5,559.5C 234.376,558.749 235.376,558.249 236.5,558C 236.272,557.601 235.938,557.435 235.5,557.5 Z"/></g>
<g><path style="opacity:1" fill="#c1c1c1" d="M 740.5,560.5 C 742.337,560.639 742.67,561.306 741.5,562.5C 740.702,562.043 740.369,561.376 740.5,560.5 Z"/></g>
<g><path style="opacity:1" fill="#a4a4a4" d="M 858.5,561.5 C 859.386,560.224 860.386,560.224 861.5,561.5C 860.575,562.562 859.575,562.562 858.5,561.5 Z"/></g>
<g><path style="opacity:1" fill="#9e9e9e" d="M 833.5,563.5 C 835.035,562.212 836.701,562.212 838.5,563.5C 836.833,564.666 835.166,564.666 833.5,563.5 Z"/></g>
<g><path style="opacity:1" fill="#646464" d="M 178.5,530.5 C 178.5,531.167 178.833,531.5 179.5,531.5C 176.036,545.602 174.702,559.935 175.5,574.5C 174.833,569.167 174.167,563.833 173.5,558.5C 174.538,548.931 176.204,539.598 178.5,530.5 Z"/></g>
<g><path style="opacity:1" fill="#939393" d="M 851.5,564.5 C 853.199,564.34 854.866,564.506 856.5,565C 854.415,567.139 852.749,566.972 851.5,564.5 Z"/></g>
<g><path style="opacity:1" fill="#767676" d="M 277.5,570.5 C 276.325,570.719 275.325,570.386 274.5,569.5C 274.833,568.167 275.167,566.833 275.5,565.5C 277.333,566.052 279,566.885 280.5,568C 279.167,568 277.833,568 276.5,568C 277.252,568.671 277.586,569.504 277.5,570.5 Z"/></g>
<g><path style="opacity:1" fill="#939393" d="M 407.5,567.5 C 409.41,566.295 410.743,566.962 411.5,569.5C 411.167,569.833 410.833,570.167 410.5,570.5C 409.712,569.23 408.712,568.23 407.5,567.5 Z"/></g>
<g><path style="opacity:1" fill="#8b8b8b" d="M 527.5,556.5 C 528.97,559.886 529.637,563.553 529.5,567.5C 529.614,570.364 529.114,573.03 528,575.5C 527.5,569.175 527.334,562.842 527.5,556.5 Z"/></g>
<g><path style="opacity:1" fill="#9d9d9d" d="M 845.5,565.5 C 846.364,566.688 847.364,567.855 848.5,569C 847.056,569.781 845.723,569.614 844.5,568.5C 845.127,567.583 845.461,566.583 845.5,565.5 Z"/></g>
<g><path style="opacity:1" fill="#aaaaaa" d="M 628.5,566.5 C 631.275,566.834 631.941,568.167 630.5,570.5C 629.295,569.423 628.628,568.09 628.5,566.5 Z"/></g>
<g><path style="opacity:1" fill="#cbcbcb" d="M 835.5,567.5 C 837.604,567.201 839.604,567.534 841.5,568.5C 838.894,569.652 836.227,569.818 833.5,569C 834.416,568.722 835.082,568.222 835.5,567.5 Z"/></g>
<g><path style="opacity:1" fill="#d7d7d7" d="M 780.5,570.5 C 781.5,570.5 782.5,570.5 783.5,570.5C 783.5,571.5 783.5,572.5 783.5,573.5C 782.5,573.5 781.5,573.5 780.5,573.5C 780.5,572.5 780.5,571.5 780.5,570.5 Z"/></g>
<g><path style="opacity:1" fill="#818181" d="M 864.5,568.5 C 864.768,570.099 864.434,571.432 863.5,572.5C 862.942,571.21 861.942,570.377 860.5,570C 861.901,569.59 863.234,569.09 864.5,568.5 Z"/></g>
<g><path style="opacity:1" fill="#818181" d="M 277.5,570.5 C 279.337,570.639 279.67,571.306 278.5,572.5C 277.702,572.043 277.369,571.376 277.5,570.5 Z"/></g>
<g><path style="opacity:1" fill="#afafaf" d="M 856.5,568.5 C 858.026,569.105 859.026,570.271 859.5,572C 859.384,573.268 859.051,574.602 858.5,576C 856.939,576.188 856.272,575.355 856.5,573.5C 855.448,573.649 854.448,573.483 853.5,573C 855.141,571.871 856.141,570.371 856.5,568.5 Z"/></g>
<g><path style="opacity:1" fill="#d0d0d0" d="M 741.5,572.5 C 742.675,572.281 743.675,572.614 744.5,573.5C 742.948,574.798 741.948,574.465 741.5,572.5 Z"/></g>
<g><path style="opacity:1" fill="#a3a3a3" d="M 405.5,575.5 C 406.376,575.369 407.043,575.702 407.5,576.5C 405.192,577.873 404.525,577.54 405.5,575.5 Z"/></g>
<g><path style="opacity:1" fill="#dfdfdf" d="M 625.5,575.5 C 626.376,575.369 627.043,575.702 627.5,576.5C 625.192,577.873 624.525,577.54 625.5,575.5 Z"/></g>
<g><path style="opacity:1" fill="#3c3c3c" d="M 232.5,616.5 C 232.829,603.989 232.495,591.655 231.5,579.5C 231.892,577.821 232.392,576.154 233,574.5C 233.827,588.673 233.661,602.673 232.5,616.5 Z"/></g>
<g><path style="opacity:1" fill="#a7a7a7" d="M 468.5,577.5 C 470.048,577.821 470.715,578.821 470.5,580.5C 467.752,580.598 467.086,579.598 468.5,577.5 Z"/></g>
<g><path style="opacity:1" fill="#a8a8a8" d="M 846.5,571.5 C 848.12,572.841 849.12,574.674 849.5,577C 848.663,578.011 848.33,579.178 848.5,580.5C 846.418,580.472 844.584,581.139 843,582.5C 842.506,580.866 842.34,579.199 842.5,577.5C 843.978,577.762 845.311,577.429 846.5,576.5C 845.675,575.614 844.675,575.281 843.5,575.5C 844.001,573.293 845.001,571.96 846.5,571.5 Z"/></g>
<g><path style="opacity:1" fill="#747474" d="M 854.5,580.5 C 858.942,580.884 859.276,581.884 855.5,583.5C 854.614,582.675 854.281,581.675 854.5,580.5 Z"/></g>
<g><path style="opacity:1" fill="#7f7f7f" d="M 780.5,580.5 C 782.972,581.749 783.139,583.415 781,585.5C 780.506,583.866 780.34,582.199 780.5,580.5 Z"/></g>
<g><path style="opacity:1" fill="#8b8b8b" d="M 906.5,575.5 C 906.833,575.5 907.167,575.5 907.5,575.5C 907.101,579.011 906.434,582.344 905.5,585.5C 905.253,582.061 905.586,578.728 906.5,575.5 Z"/></g>
<g><path style="opacity:1" fill="#f3f3f3" d="M 231.5,579.5 C 232.495,591.655 232.829,603.989 232.5,616.5C 227.255,617.421 225.255,615.254 226.5,610C 228.112,599.781 229.779,589.615 231.5,579.5 Z"/></g>
<g><path style="opacity:1" fill="#dadada" d="M 414.5,582.5 C 415.675,582.281 416.675,582.614 417.5,583.5C 415.948,584.798 414.948,584.465 414.5,582.5 Z"/></g>
<g><path style="opacity:1" fill="#7c7c7c" d="M 634.5,582.5 C 636.346,582.222 637.68,582.889 638.5,584.5C 636.167,585.941 634.834,585.275 634.5,582.5 Z"/></g>
<g><path style="opacity:1" fill="#e8e8e8" d="M 362.5,585.5 C 364.665,585.116 366.332,585.783 367.5,587.5C 364.83,589.09 363.163,588.423 362.5,585.5 Z"/></g>
<g><path style="opacity:1" fill="#ebebeb" d="M 582.5,585.5 C 584.665,585.116 586.332,585.783 587.5,587.5C 584.83,589.09 583.163,588.423 582.5,585.5 Z"/></g>
<g><path style="opacity:1" fill="#ebebeb" d="M 416.5,586.5 C 418.604,586.201 420.604,586.534 422.5,587.5C 421.833,588.167 421.167,588.833 420.5,589.5C 421.274,590.711 422.107,590.711 423,589.5C 424.3,596.782 425.8,603.949 427.5,611C 427.32,613.241 426.487,613.741 425,612.5C 423.705,608.785 422.538,605.118 421.5,601.5C 418.183,601.843 415.849,600.509 414.5,597.5C 415.39,596.045 415.39,594.711 414.5,593.5C 418.038,592.355 418.372,590.522 415.5,588C 416.056,587.617 416.389,587.117 416.5,586.5 Z"/></g>
<g><path style="opacity:1" fill="#ebebeb" d="M 636.5,586.5 C 638.604,586.201 640.604,586.534 642.5,587.5C 641.833,588.167 641.167,588.833 640.5,589.5C 641.833,589.833 643.167,590.167 644.5,590.5C 644.167,591.167 643.833,591.833 643.5,592.5C 644.909,598.636 646.242,604.803 647.5,611C 647.167,611.833 646.833,612.667 646.5,613.5C 644.039,609.77 642.372,605.77 641.5,601.5C 638.381,601.876 636.047,600.709 634.5,598C 635.695,596.467 635.695,594.967 634.5,593.5C 635.5,592.833 636.5,592.167 637.5,591.5C 636.691,589.929 636.357,588.262 636.5,586.5 Z"/></g>
<g><path style="opacity:1" fill="#787878" d="M 851.5,588.5 C 853.973,588.947 854.14,589.947 852,591.5C 851.517,590.552 851.351,589.552 851.5,588.5 Z"/></g>
<g><path style="opacity:1" fill="#626262" d="M 223.5,580.5 C 223.083,583.079 223.75,585.246 225.5,587C 224.572,587.388 223.905,588.055 223.5,589C 223.944,590.762 224.444,590.595 225,588.5C 225.393,590.199 224.893,591.699 223.5,593C 223.717,595.516 224.05,598.016 224.5,600.5C 223.18,597.572 222.514,594.239 222.5,590.5C 222.502,586.982 222.835,583.649 223.5,580.5 Z"/></g>
<g><path style="opacity:1" fill="#c9c9c9" d="M 781.5,597.5 C 781.167,597.5 780.833,597.5 780.5,597.5C 781.625,595.179 781.792,592.846 781,590.5C 782.807,592.706 782.974,595.039 781.5,597.5 Z"/></g>
<g><path style="opacity:1" fill="#e3e3e3" d="M 834.5,592.5 C 836.941,593.557 839.275,594.89 841.5,596.5C 840.409,597.888 839.076,598.388 837.5,598C 835.393,596.736 834.393,594.903 834.5,592.5 Z"/></g>
<g><path style="opacity:1" fill="#dddddd" d="M 801.5,593.5 C 803.293,593.884 804.293,595.05 804.5,597C 802.464,600.293 800.464,600.127 798.5,596.5C 799.34,595.265 800.34,594.265 801.5,593.5 Z"/></g>
<g><path style="opacity:1" fill="#9c9c9c" d="M 845.5,592.5 C 847.832,593.162 848.499,594.495 847.5,596.5C 845.889,595.68 845.222,594.346 845.5,592.5 Z"/></g>
<g><path style="opacity:1" fill="#cbcbcb" d="M 573.5,595.5 C 573.56,594.957 573.893,594.624 574.5,594.5C 577.5,596.833 577.167,598.5 573.5,599.5C 573.596,598.119 573.596,596.785 573.5,595.5 Z"/></g>
<g><path style="opacity:1" fill="#d7d7d7" d="M 353.5,595.5 C 353.56,594.957 353.893,594.624 354.5,594.5C 357.5,596.833 357.167,598.5 353.5,599.5C 353.93,598.288 353.93,596.955 353.5,595.5 Z"/></g>
<g><path style="opacity:1" fill="#a9a9a9" d="M 680.5,598.5 C 681.675,598.281 682.675,598.614 683.5,599.5C 681.948,600.798 680.948,600.465 680.5,598.5 Z"/></g>
<g><path style="opacity:1" fill="#676767" d="M 780.5,597.5 C 780.833,597.5 781.167,597.5 781.5,597.5C 782.72,599.05 782.72,600.716 781.5,602.5C 780.599,601.71 779.932,600.71 779.5,599.5C 780.338,599.158 780.672,598.492 780.5,597.5 Z"/></g>
<g><path style="opacity:1" fill="#626262" d="M 905.5,585.5 C 904.751,593.154 903.084,600.487 900.5,607.5C 900.5,606.833 900.167,606.5 899.5,606.5C 901.678,599.441 903.678,592.441 905.5,585.5 Z"/></g>
<g><path style="opacity:1" fill="#dedede" d="M 676.5,603.5 C 677.568,602.566 678.901,602.232 680.5,602.5C 679.84,607.182 678.507,607.515 676.5,603.5 Z"/></g>
<g><path style="opacity:1" fill="#9c9c9c" d="M 821.5,602.5 C 823.199,602.34 824.866,602.506 826.5,603C 824.415,605.139 822.749,604.972 821.5,602.5 Z"/></g>
<g><path style="opacity:1" fill="#7f7f7f" d="M 822.5,609.5 C 824.337,609.639 824.67,610.306 823.5,611.5C 822.702,611.043 822.369,610.376 822.5,609.5 Z"/></g>
<g><path style="opacity:1" fill="#dddddd" d="M 409.5,613.5 C 410.077,612.227 410.743,612.227 411.5,613.5C 411.03,614.463 410.363,614.463 409.5,613.5 Z"/></g>
<g><path style="opacity:1" fill="#808080" d="M 629.5,613.5 C 631.496,612.312 632.329,612.979 632,615.5C 631.292,614.619 630.458,613.953 629.5,613.5 Z"/></g>
</svg>
